<svg xmlns="http://www.w3.org/2000/svg" width="1942.71875px" height="609.046875px" class="sequence hand"><desc></desc><defs><marker viewBox="0 0 5 5" markerWidth="5" markerHeight="5" orient="auto" refX="5" refY="2.5" id="markerArrowBlock"><path d="M 0 0 L 5 2.5 L 0 5 z"/></marker><marker viewBox="0 0 9.6 16" markerWidth="4" markerHeight="16" orient="auto" refX="9.6" refY="8" id="markerArrowOpen"><path d="M 9.6,8 1.92,16 0,13.7 5.76,8 0,2.286 1.92,0 9.6,8 z"/></marker></defs><g class="title"/><g class="actor"><path d="M10,20C62.1,15.3 99.1,24.7 128.2,20.0C126.5,34.6 129.9,38.4 128.2,62.2C38.4,57.5 99.8,67.0 10.0,62.2C8.3,55.5 11.7,46.9 10.0,20.0" stroke="#000000" fill="#ffffff" style="stroke-width: 2;"/><text x="20" y="43.890625" style="font-size: 16px; font-family: danielbd;"><tspan x="20">LogMessage</tspan></text></g><g class="actor"><path d="M10,546.8125C104.3,551.5 71.0,542.1 128.2,546.8C126.5,561.0 129.9,562.4 128.2,589.0C40.5,593.8 79.8,584.3 10.0,589.0C8.3,572.1 11.7,556.9 10.0,546.8" stroke="#000000" fill="#ffffff" style="stroke-width: 2;"/><text x="20" y="570.703125" style="font-size: 16px; font-family: danielbd;"><tspan x="20">LogMessage</tspan></text></g><path d="M69.1,62.2C88.5,430.5 49.7,371.5 69.1,546.8" stroke="#000000" fill="none" style="stroke-width: 2;"/><g class="actor"><path d="M315.5703125,20C333.4,15.5 406.7,24.5 427.3,20.0C428.9,45.2 425.6,30.7 427.3,62.2C409.4,57.8 348.6,66.7 315.6,62.2C317.3,32.2 313.9,30.1 315.6,20.0" stroke="#000000" fill="#ffffff" style="stroke-width: 2;"/><text x="325.5703125" y="43.890625" style="font-size: 16px; font-family: danielbd;"><tspan x="325.5703125">Controller</tspan></text></g><g class="actor"><path d="M315.5703125,546.8125C333.4,542.3 342.4,551.3 427.3,546.8C428.9,582.3 425.6,578.9 427.3,589.0C342.5,584.6 333.4,593.5 315.6,589.0C317.3,576.6 313.9,556.9 315.6,546.8" stroke="#000000" fill="#ffffff" style="stroke-width: 2;"/><text x="325.5703125" y="570.703125" style="font-size: 16px; font-family: danielbd;"><tspan x="325.5703125">Controller</tspan></text></g><path d="M371.4,62.2C390.8,456.1 352.0,426.5 371.4,546.8" stroke="#000000" fill="none" style="stroke-width: 2;"/><g class="actor"><path d="M487.53125,20C530.9,23.9 547.6,16.1 585.8,20.0C584.1,37.0 587.5,49.8 585.8,62.2C511.1,66.2 562.2,58.3 487.5,62.2C485.8,30.1 489.2,52.1 487.5,20.0" stroke="#000000" fill="#ffffff" style="stroke-width: 2;"/><text x="497.53125" y="43.890625" style="font-size: 16px; font-family: danielbd;"><tspan x="497.53125">Publisher</tspan></text></g><g class="actor"><path d="M487.53125,546.8125C559.4,550.7 570.1,542.9 585.8,546.8C584.1,582.3 587.5,563.4 585.8,589.0C570.1,593.0 562.2,585.1 487.5,589.0C489.2,569.9 485.8,561.9 487.5,546.8" stroke="#000000" fill="#ffffff" style="stroke-width: 2;"/><text x="497.53125" y="570.703125" style="font-size: 16px; font-family: danielbd;"><tspan x="497.53125">Publisher</tspan></text></g><path d="M536.7,62.2C556.0,139.8 517.3,182.0 536.7,546.8" stroke="#000000" fill="none" style="stroke-width: 2;"/><g class="actor"><path d="M726.625,20C769.3,23.5 780.3,16.5 813.3,20.0C815.0,36.9 811.6,52.1 813.3,62.2C773.9,58.8 774.3,65.7 726.6,62.2C728.3,30.1 724.9,52.1 726.6,20.0" stroke="#000000" fill="#ffffff" style="stroke-width: 2;"/><text x="736.625" y="43.890625" style="font-size: 16px; font-family: danielbd;"><tspan x="736.625">Channel</tspan></text></g><g class="actor"><path d="M726.625,546.8125C758.3,550.3 747.4,543.3 813.3,546.8C815.0,578.9 811.6,556.9 813.3,589.0C799.4,585.6 740.5,592.5 726.6,589.0C728.3,563.6 724.9,578.9 726.6,546.8" stroke="#000000" fill="#ffffff" style="stroke-width: 2;"/><text x="736.625" y="570.703125" style="font-size: 16px; font-family: danielbd;"><tspan x="736.625">Channel</tspan></text></g><path d="M769.9,62.2C789.3,179.2 750.6,265.3 769.9,546.8" stroke="#000000" fill="none" style="stroke-width: 2;"/><g class="actor"><path d="M951.875,20C1053.0,14.1 1048.2,25.9 1098.2,20.0C1099.9,32.7 1096.5,27.6 1098.2,62.2C1074.8,56.4 975.3,68.1 951.9,62.2C950.2,32.6 953.6,32.4 951.9,20.0" stroke="#000000" fill="#ffffff" style="stroke-width: 2;"/><text x="961.875" y="43.890625" style="font-size: 16px; font-family: danielbd;"><tspan x="961.875">RedisListerner</tspan></text></g><g class="actor"><path d="M951.875,546.8125C1074.8,541.0 1028.3,552.7 1098.2,546.8C1099.9,556.9 1096.5,553.6 1098.2,589.0C993.5,583.2 1030.0,594.9 951.9,589.0C950.2,565.9 953.6,553.9 951.9,546.8" stroke="#000000" fill="#ffffff" style="stroke-width: 2;"/><text x="961.875" y="570.703125" style="font-size: 16px; font-family: danielbd;"><tspan x="961.875">RedisListerner</tspan></text></g><path d="M1025.1,62.2C1044.4,170.2 1005.7,215.0 1025.1,546.8" stroke="#000000" fill="none" style="stroke-width: 2;"/><g class="actor"><path d="M1118.234375,20C1263.4,11.0 1154.1,29.0 1342.2,20.0C1343.9,31.6 1340.5,37.1 1342.2,62.2C1306.4,53.3 1154.1,71.2 1118.2,62.2C1116.5,30.1 1119.9,26.8 1118.2,20.0" stroke="#000000" fill="#ffffff" style="stroke-width: 2;"/><text x="1128.234375" y="43.890625" style="font-size: 16px; font-family: danielbd;"><tspan x="1128.234375">AsyncMessageSubscriber</tspan></text></g><g class="actor"><path d="M1118.234375,546.8125C1184.3,537.9 1306.4,555.8 1342.2,546.8C1343.9,582.3 1340.5,578.9 1342.2,589.0C1306.4,598.0 1187.5,580.1 1118.2,589.0C1119.9,554.8 1116.5,575.5 1118.2,546.8" stroke="#000000" fill="#ffffff" style="stroke-width: 2;"/><text x="1128.234375" y="570.703125" style="font-size: 16px; font-family: danielbd;"><tspan x="1128.234375">AsyncMessageSubscriber</tspan></text></g><path d="M1230.2,62.2C1210.9,430.5 1249.6,469.3 1230.2,546.8" stroke="#000000" fill="none" style="stroke-width: 2;"/><g class="actor"><path d="M1419.96875,20C1661.1,31.5 1465.9,8.5 1707.0,20.0C1708.7,52.1 1705.3,33.1 1707.0,62.2C1488.9,73.7 1631.0,50.8 1420.0,62.2C1418.3,53.8 1421.7,52.1 1420.0,20.0" stroke="#000000" fill="#ffffff" style="stroke-width: 2;"/><text x="1429.96875" y="43.890625" style="font-size: 16px; font-family: danielbd;"><tspan x="1429.96875">MessageProcessor(Worker Pool)</tspan></text></g><g class="actor"><path d="M1419.96875,546.8125C1619.8,535.3 1646.0,558.3 1707.0,546.8C1708.7,576.2 1705.3,553.6 1707.0,589.0C1488.9,577.6 1465.9,600.5 1420.0,589.0C1418.3,565.8 1421.7,569.7 1420.0,546.8" stroke="#000000" fill="#ffffff" style="stroke-width: 2;"/><text x="1429.96875" y="570.703125" style="font-size: 16px; font-family: danielbd;"><tspan x="1429.96875">MessageProcessor(Worker Pool)</tspan></text></g><path d="M1563.5,62.2C1544.1,233.4 1582.9,144.3 1563.5,546.8" stroke="#000000" fill="none" style="stroke-width: 2;"/><g class="actor"><path d="M1749.46875,20C1860.6,26.5 1825.1,13.5 1912.7,20.0C1914.4,30.8 1911.0,33.4 1912.7,62.2C1788.6,68.8 1873.5,55.7 1749.5,62.2C1751.2,36.1 1747.8,51.7 1749.5,20.0" stroke="#000000" fill="#ffffff" style="stroke-width: 2;"/><text x="1759.46875" y="43.890625" style="font-size: 16px; font-family: danielbd;"><tspan x="1759.46875">NotificationAlert</tspan></text></g><g class="actor"><path d="M1749.46875,546.8125C1812.2,553.3 1822.6,540.3 1912.7,546.8C1911.0,570.3 1914.4,567.9 1912.7,589.0C1873.5,595.6 1844.1,582.5 1749.5,589.0C1751.2,570.4 1747.8,562.8 1749.5,546.8" stroke="#000000" fill="#ffffff" style="stroke-width: 2;"/><text x="1759.46875" y="570.703125" style="font-size: 16px; font-family: danielbd;"><tspan x="1759.46875">NotificationAlert</tspan></text></g><path d="M1831.1,62.2C1850.5,225.3 1811.7,430.5 1831.1,546.8" stroke="#000000" fill="none" style="stroke-width: 2;"/><g class="signal"><text x="79.0859375" y="90.0078125" style="font-size: 16px; font-family: danielbd;"><tspan x="79.0859375">requestMessageWithChannelName</tspan></text><path d="M69.1,104.5C117.5,116.6 323.0,92.4 371.4,104.5" stroke="#000000" fill="none" style="stroke-width: 2; marker-end: url(&quot;#markerArrowBlock&quot;);"/></g><g class="signal"><text x="381.4140625" y="132.2421875" style="font-size: 16px; font-family: danielbd;"><tspan x="381.4140625">publishingMessage</tspan></text><path d="M371.4,146.7C494.9,153.3 476.9,140.1 536.7,146.7" stroke="#000000" fill="none" style="stroke-width: 2; marker-end: url(&quot;#markerArrowBlock&quot;);"/></g><g class="signal"><text x="546.6640625" y="174.4765625" style="font-size: 16px; font-family: danielbd;"><tspan x="546.6640625">publishMessageToChannel</tspan></text><path d="M536.7,188.9C694.1,198.3 732.6,179.6 769.9,188.9" stroke="#000000" fill="none" style="stroke-width: 2; marker-end: url(&quot;#markerArrowBlock&quot;);"/></g><g class="signal"><text x="779.9453125" y="216.7109375" style="font-size: 16px; font-family: danielbd;"><tspan x="779.9453125">receiveMessageFromChannel</tspan></text><path d="M769.9,231.2C831.2,221.0 810.8,241.4 1025.1,231.2" stroke="#000000" fill="none" style="stroke-width: 2; marker-end: url(&quot;#markerArrowBlock&quot;);"/></g><g class="signal"><text x="1062.70703125" y="258.9453125" style="font-size: 16px; font-family: danielbd;"><tspan x="1062.70703125">processMessage</tspan></text><path d="M1025.1,273.4C1106.7,281.6 1074.3,265.2 1230.2,273.4" stroke="#000000" fill="none" style="stroke-width: 2; marker-end: url(&quot;#markerArrowBlock&quot;);"/></g><g class="signal"><text x="1311.484375" y="301.1796875" style="font-size: 16px; font-family: danielbd;"><tspan x="1311.484375">readMessageThread1</tspan></text><path d="M1230.2,315.6C1308.6,302.3 1384.2,329.0 1563.5,315.6" stroke="#000000" fill="none" style="stroke-width: 2; marker-end: url(&quot;#markerArrowBlock&quot;);"/></g><g class="signal"><text x="1573.5" y="343.4140625" style="font-size: 16px; font-family: danielbd;"><tspan x="1573.5">sendAnAlertBasedOnMessage</tspan></text><path d="M1563.5,357.9C1766.9,347.2 1788.3,368.6 1831.1,357.9" stroke="#000000" fill="none" style="stroke-width: 2; marker-end: url(&quot;#markerArrowBlock&quot;);"/></g><g class="signal"><text x="1044.58203125" y="385.6484375" style="font-size: 16px; font-family: danielbd;"><tspan x="1044.58203125">processNewMessage</tspan></text><path d="M1025.1,400.1C1125.5,391.9 1097.5,408.3 1230.2,400.1" stroke="#000000" fill="none" style="stroke-width: 2; marker-end: url(&quot;#markerArrowBlock&quot;);"/></g><g class="signal"><text x="1307.671875" y="427.8828125" style="font-size: 16px; font-family: danielbd;"><tspan x="1307.671875">readMessageThread2</tspan></text><path d="M1230.2,442.3C1354.4,455.7 1405.7,429.0 1563.5,442.3" stroke="#000000" fill="none" style="stroke-width: 2; marker-end: url(&quot;#markerArrowBlock&quot;);"/></g><g class="signal"><text x="1244.0546875" y="470.1171875" style="font-size: 16px; font-family: danielbd;"><tspan x="1244.0546875">200 Response readMessageThread1</tspan></text><path d="M1563.5,484.6C1387.8,471.2 1510.0,497.9 1230.2,484.6" stroke="#000000" fill="none" style="stroke-width: 2; marker-end: url(&quot;#markerArrowBlock&quot;);"/></g><g class="signal"><text x="1240.234375" y="512.3515625" style="font-size: 16px; font-family: danielbd;"><tspan x="1240.234375">200 Response readMessageThread2</tspan></text><path d="M1563.5,526.8C1498.3,513.5 1293.1,540.1 1230.2,526.8" stroke="#000000" fill="none" style="stroke-width: 2; marker-end: url(&quot;#markerArrowBlock&quot;);"/></g></svg>